<?xml version="1.0" encoding="UTF-8"?>
<svg width="512pt" height="512pt" version="1.1" viewBox="0 0 512 512" xmlns="http://www.w3.org/2000/svg">
 <g>
  <path d="m512 256c0 141.39-114.61 256-256 256s-256-114.61-256-256 114.61-256 256-256 256 114.61 256 256" fill="#00bfff"/>
  <path d="m275.35 320.49c0 3.5625-2.8867 6.4492-6.4492 6.4492s-6.4492-2.8867-6.4492-6.4492c-0.019531-18.809-7.5-36.84-20.801-50.137-13.297-13.301-31.328-20.781-50.137-20.801-3.5625 0-6.4492-2.8867-6.4492-6.4492 0-3.5586 2.8867-6.4492 6.4492-6.4492 22.227 0.027344 43.535 8.8711 59.25 24.586 15.715 15.715 24.559 37.023 24.586 59.25zm-83.836-135.43c-3.5625 0-6.4492 2.8867-6.4492 6.4492s2.8867 6.4492 6.4492 6.4492c32.484 0.039062 63.629 12.961 86.598 35.93 22.973 22.969 35.891 54.113 35.93 86.598 0 3.5625 2.8867 6.4492 6.4492 6.4492s6.4492-2.8867 6.4492-6.4492c-0.042969-35.906-14.324-70.328-39.711-95.715-25.387-25.387-59.809-39.668-95.715-39.711zm174.12 6.4492v128.98c0 11.973-4.7539 23.453-13.223 31.918-8.4648 8.4688-19.945 13.223-31.918 13.223h-128.98c-0.43359 0.027344-0.86719-0.015625-1.2891-0.12891-11.738-0.29688-22.895-5.168-31.086-13.578-8.1953-8.4102-12.777-19.691-12.766-31.434v-128.98c-0.011719-11.742 4.5703-23.02 12.766-31.43 8.1914-8.4102 19.348-13.285 31.086-13.582 0.42188-0.11328 0.85547-0.15625 1.2891-0.12891h128.98c11.973 0 23.453 4.7578 31.918 13.223 8.4688 8.4648 13.223 19.945 13.223 31.918zm-25.797 0h0.003907c0-8.5508-3.3984-16.754-9.4453-22.801-6.0469-6.0469-14.25-9.4414-22.801-9.4414h-116.08c-8.5508 0-16.754 3.3945-22.801 9.4414-6.0469 6.0469-9.4414 14.25-9.4414 22.801v128.98c0 8.5508 3.3945 16.754 9.4414 22.801 6.0469 6.0469 14.25 9.4414 22.801 9.4414h116.08c8.5508 0 16.754-3.3945 22.801-9.4414 6.0469-6.0469 9.4453-14.25 9.4453-22.801zm-135.42 96.73c-5.1328 0-10.051 2.0391-13.68 5.668-3.6289 3.6289-5.668 8.5508-5.668 13.68 0 5.1328 2.0391 10.051 5.668 13.68 3.6289 3.6289 8.5469 5.668 13.68 5.668 5.1328 0 10.051-2.0391 13.68-5.668 3.6289-3.6289 5.668-8.5469 5.668-13.68 0-5.1289-2.0391-10.051-5.668-13.68s-8.5469-5.668-13.68-5.668z" fill="#fff"/>
 </g>
</svg>
