<?xml version="1.0" encoding="UTF-8"?>
<svg width="128pt" height="128pt" version="1.1" viewBox="0 0 128 128" xmlns="http://www.w3.org/2000/svg">
 <g>
  <path d="m128 64c0 35.348-28.652 64-64 64s-64-28.652-64-64 28.652-64 64-64 64 28.652 64 64" fill="#00bfff"/>
  <path d="m68.836 80.121c0 0.89062-0.72266 1.6133-1.6133 1.6133-0.88672 0-1.6094-0.72266-1.6094-1.6133-0.007812-4.6992-1.875-9.207-5.1992-12.535-3.3281-3.3242-7.8359-5.1914-12.535-5.1992-0.89062 0-1.6133-0.71875-1.6133-1.6094s0.72266-1.6133 1.6133-1.6133c5.5547 0.007813 10.883 2.2148 14.812 6.1445 3.9297 3.9297 6.1367 9.2578 6.1445 14.812zm-20.957-33.855c-0.89062 0-1.6133 0.72266-1.6133 1.6133s0.72266 1.6133 1.6133 1.6133c8.1211 0.007812 15.906 3.2383 21.648 8.9805 5.7422 5.7422 8.9727 13.527 8.9844 21.648 0 0.89062 0.71875 1.6133 1.6094 1.6133s1.6133-0.72266 1.6133-1.6133c-0.011719-8.9766-3.582-17.582-9.9258-23.926-6.3477-6.3477-14.953-9.918-23.93-9.9297zm43.527 1.6133v32.242c0 2.9922-1.1875 5.8633-3.3047 7.9805-2.1172 2.1172-4.9883 3.3047-7.9805 3.3047h-32.242c-0.10938 0.007812-0.21875-0.003906-0.32422-0.03125-6.1016-0.15234-10.969-5.1484-10.961-11.254v-32.242c-0.007812-6.1055 4.8594-11.102 10.961-11.254 0.10547-0.027344 0.21484-0.039062 0.32422-0.03125h32.242c6.2344 0 11.285 5.0508 11.285 11.285zm-6.4492 0c0-2.1367-0.84766-4.1875-2.3594-5.6992-1.5117-1.5117-3.5625-2.3633-5.6992-2.3633h-29.02c-4.4531 0-8.0625 3.6094-8.0625 8.0625v32.242c0 2.1406 0.85156 4.1875 2.3633 5.6992 1.5117 1.5117 3.5625 2.3633 5.6992 2.3633h29.02c2.1367 0 4.1875-0.85156 5.6992-2.3633 1.5117-1.5117 2.3594-3.5586 2.3594-5.6992zm-33.855 24.184c-1.957 0-3.7188 1.1758-4.4688 2.9844-0.74609 1.8086-0.33203 3.8867 1.0508 5.2695 1.3828 1.3828 3.4609 1.7969 5.2695 1.0508 1.8086-0.75 2.9844-2.5117 2.9844-4.4688 0-2.6719-2.1641-4.8359-4.8359-4.8359z" fill="#fff"/>
 </g>
</svg>
